<?xml version="1.0" encoding="UTF-8"?>
<svg width="156px" height="45px" viewBox="0 0 156 45" version="1.1" xmlns="http://www.w3.org/2000/svg" xmlns:xlink="http://www.w3.org/1999/xlink">
    <!-- Generator: Sketch 50 (54983) - http://www.bohemiancoding.com/sketch -->
    <title>Logo</title>
    <desc>Created with Sketch.</desc>
    <defs>
        <linearGradient x1="101.082342%" y1="50.084467%" x2="10.6289298%" y2="50.084467%" id="linearGradient-1">
            <stop stop-color="#FFFFFF" offset="0%"></stop>
            <stop stop-color="#E5D9BB" offset="14.88%"></stop>
            <stop stop-color="#BA9C4C" offset="39.96%"></stop>
            <stop stop-color="#A98320" offset="51.12%"></stop>
            <stop stop-color="#A57F21" offset="64.07%"></stop>
            <stop stop-color="#987325" offset="78.11%"></stop>
            <stop stop-color="#825F2C" offset="92.61%"></stop>
            <stop stop-color="#745230" offset="100%"></stop>
        </linearGradient>
        <linearGradient x1="82.9386792%" y1="110.334166%" x2="19.3462401%" y2="12.6747978%" id="linearGradient-2">
            <stop stop-color="#FFFFFF" offset="0%"></stop>
            <stop stop-color="#F9F6EE" offset="2.931193%"></stop>
            <stop stop-color="#DDCDA6" offset="16.41%"></stop>
            <stop stop-color="#C6AD6C" offset="28.5%"></stop>
            <stop stop-color="#B69643" offset="38.78%"></stop>
            <stop stop-color="#AD8829" offset="46.84%"></stop>
            <stop stop-color="#A98320" offset="51.69%"></stop>
            <stop stop-color="#8E6A28" offset="74.65%"></stop>
            <stop stop-color="#745230" offset="100%"></stop>
        </linearGradient>
        <linearGradient x1="-1.05897583%" y1="50.173195%" x2="89.3926492%" y2="50.173195%" id="linearGradient-3">
            <stop stop-color="#FFFFFF" offset="0%"></stop>
            <stop stop-color="#E5D9BB" offset="14.88%"></stop>
            <stop stop-color="#BA9C4C" offset="39.96%"></stop>
            <stop stop-color="#A98320" offset="51.12%"></stop>
            <stop stop-color="#A57F21" offset="64.07%"></stop>
            <stop stop-color="#987325" offset="78.11%"></stop>
            <stop stop-color="#825F2C" offset="92.61%"></stop>
            <stop stop-color="#745230" offset="100%"></stop>
        </linearGradient>
        <linearGradient x1="17.1781208%" y1="-9.9404042%" x2="80.768348%" y2="87.4879355%" id="linearGradient-4">
            <stop stop-color="#FFFFFF" offset="0%"></stop>
            <stop stop-color="#F9F6EE" offset="2.931193%"></stop>
            <stop stop-color="#DDCDA6" offset="16.41%"></stop>
            <stop stop-color="#C6AD6C" offset="28.5%"></stop>
            <stop stop-color="#B69643" offset="38.78%"></stop>
            <stop stop-color="#AD8829" offset="46.84%"></stop>
            <stop stop-color="#A98320" offset="51.69%"></stop>
            <stop stop-color="#8E6A28" offset="74.65%"></stop>
            <stop stop-color="#745230" offset="100%"></stop>
        </linearGradient>
    </defs>
    <g id="Desktop" stroke="none" stroke-width="1" fill="none" fill-rule="evenodd">
        <g id="remark/1.0-首頁" transform="translate(-224.000000, -17.000000)">
            <g id="Header/1-房屋鑑價">
                <g id="Logo" transform="translate(224.000000, 17.000000)">
                    <g id="橫式中文簡稱">
                        <g id="Group" fill-rule="nonzero">
                            <path d="M38.2671345,32.6842105 C34.2348538,35.5263158 28.5422222,37.3421053 22.1380117,37.3421053 C15.8128655,37.3421053 10.0411696,35.5263158 6.00888889,32.6842105 C2.2928655,30.0789474 0.0790643275,26.5263158 0.0790643275,22.6578947 C0.0790643275,30.8684211 4.58573099,38.0526316 11.2271345,41.8421053 C14.3106433,43.5789474 17.7894737,44.6052632 21.5054971,44.6842105 C21.5054971,44.6842105 21.5054971,44.6842105 21.5845614,44.6842105 C21.7426901,44.6842105 21.979883,44.6842105 22.1380117,44.6842105 C22.2961404,44.6842105 22.5333333,44.6842105 22.691462,44.6842105 C22.691462,44.6842105 22.691462,44.6842105 22.7705263,44.6842105 C26.4865497,44.6052632 29.9653801,43.5789474 33.0488889,41.8421053 C36.2905263,39.7894737 38.3461988,36.9473684 38.3461988,33.7105263 C38.3461988,33.3947368 38.3461988,33 38.2671345,32.6842105 Z" id="Shape" fill="url(#linearGradient-1)"></path>
                            <path d="M6.08795322,12.6315789 C6.00888889,12.3157895 6.00888889,12 6.00888889,11.6842105 C6.00888889,8.44736842 8.0645614,5.52631579 11.3061988,3.55263158 C4.66479532,7.34210526 0.158128655,14.4473684 0.158128655,22.6578947 C0.158128655,26.5263158 2.45099415,30.0789474 6.08795322,32.6842105 C10.1202339,35.5263158 15.8128655,37.3421053 22.217076,37.3421053 L22.217076,22.6578947 C13.757193,22.6578947 6.79953216,18.3157895 6.08795322,12.6315789 Z" id="Shape" fill="url(#linearGradient-2)"></path>
                            <path d="M38.2671345,32.6842105 C34.2348538,35.5263158 28.5422222,37.3421053 22.1380117,37.3421053 L22.1380117,22.6578947 C30.5978947,22.6578947 37.5555556,27.0789474 38.2671345,32.6842105 Z" id="Shape" fill="#FFFFFF"></path>
                            <path d="M6.08795322,12.6315789 C10.1202339,9.78947368 15.8128655,7.97368421 22.217076,7.97368421 L22.217076,22.6578947 C13.757193,22.6578947 6.79953216,18.3157895 6.08795322,12.6315789 Z" id="Shape" fill="#FFFFFF"></path>
                            <g transform="translate(5.534503, 0.000000)" id="Shape">
                                <path d="M0.553450292,12.6315789 C4.58573099,9.78947368 10.2783626,7.97368421 16.6825731,7.97368421 C23.0077193,7.97368421 28.7794152,9.78947368 32.8116959,12.6315789 C36.5277193,15.2368421 38.7415205,18.7894737 38.7415205,22.6578947 C38.7415205,14.4473684 34.2348538,7.26315789 27.5934503,3.47368421 C24.5890058,1.73684211 21.0311111,0.710526316 17.3150877,0.631578947 C17.3150877,0.631578947 17.3150877,0.631578947 17.2360234,0.631578947 C17.0778947,0.631578947 16.8407018,0.631578947 16.6825731,0.631578947 C16.5244444,0.631578947 16.2872515,0.631578947 16.1291228,0.631578947 C16.1291228,0.631578947 16.0500585,0.631578947 16.0500585,0.631578947 C12.3340351,0.710526316 8.85520468,1.73684211 5.77169591,3.47368421 C2.53005848,5.44736842 0.474385965,8.36842105 0.474385965,11.6052632 C0.474385965,12 0.553450292,12.3157895 0.553450292,12.6315789 Z" fill="url(#linearGradient-3)"></path>
                                <path d="M32.7326316,32.6842105 C32.8116959,33 32.8116959,33.3157895 32.8116959,33.6315789 C32.8116959,36.8684211 30.7560234,39.7894737 27.514386,41.7631579 C34.1557895,37.9736842 38.6624561,30.7894737 38.6624561,22.5789474 C38.6624561,18.7105263 36.448655,15.1578947 32.7326316,12.5526316 C28.7003509,9.71052632 23.0077193,7.89473684 16.6035088,7.89473684 L16.6035088,22.5789474 C25.0633918,22.6578947 32.0210526,27.0789474 32.7326316,32.6842105 Z" fill="url(#linearGradient-4)"></path>
                            </g>
                        </g>
                        <g id="Group" transform="translate(56.926316, 12.631579)" fill="#231815" fill-rule="nonzero">
                            <path d="M7.11578947,0.236842105 L8.93426901,0.236842105 L8.93426901,10.0263158 C8.85520468,12.7894737 8.38081871,14.9210526 7.43204678,16.4210526 C6.87859649,17.2894737 6.16701754,18.0789474 5.37637427,18.5526316 C4.50666667,19.1052632 3.24163743,19.5789474 1.66035088,19.8947368 L0.553450292,18.0789474 C1.7394152,18 2.84631579,17.6842105 3.95321637,17.1315789 C5.92982456,16.1052632 6.95766082,13.8947368 7.03672515,10.7368421 C5.53450292,11.9210526 3.71602339,13.1052632 1.66035088,14.2894737 L0.711578947,12.6315789 C3.39976608,11.2105263 5.53450292,9.86842105 7.11578947,8.60526316 L7.11578947,0.236842105 Z M2.60912281,1.81578947 C3.79508772,3.07894737 4.9019883,4.73684211 6.08795322,6.78947368 L4.50666667,7.81578947 C3.24163743,5.68421053 2.13473684,4.10526316 1.10690058,3 L2.60912281,1.81578947 Z M13.4409357,0.157894737 L13.4409357,16.8157895 C13.4409357,17.1315789 13.52,17.3684211 13.757193,17.6052632 C13.994386,17.7631579 14.2315789,17.9210526 14.4687719,17.9210526 L17.631345,17.9210526 C17.7894737,17.9210526 18.0266667,17.8421053 18.1847953,17.6842105 C18.342924,17.6052632 18.4219883,16.7368421 18.5010526,15 L20.3195322,15.3157895 C20.1614035,17.6052632 19.9242105,18.8684211 19.7660819,19.0263158 C19.2916959,19.5 18.8963743,19.7368421 18.4219883,19.7368421 L13.4409357,19.7368421 C12.9665497,19.7368421 12.5712281,19.5 12.0968421,19.1052632 C11.7015205,18.7105263 11.5433918,18.3157895 11.5433918,17.8421053 L11.5433918,0.157894737 L13.4409357,0.157894737 Z M19.7660819,2.36842105 C18.7382456,3.94736842 17.3150877,5.60526316 15.4966082,7.42105263 L14.0734503,6.15789474 C15.9709942,4.18421053 17.394152,2.60526316 18.342924,1.18421053 L19.7660819,2.36842105 Z M15.3384795,8.52631579 C16.9197661,9.47368421 18.580117,10.8157895 20.3985965,12.5526316 L19.2126316,13.9736842 C17.2360234,12.1578947 15.5756725,10.8157895 14.2315789,10.0263158 L15.3384795,8.52631579 Z" id="Shape"></path>
                            <path d="M31.0722807,16.8157895 L28.1469006,16.8157895 C27.9887719,16.8157895 27.9097076,16.7368421 27.9097076,16.5789474 L27.9097076,13.1052632 C27.9097076,12.9473684 27.9887719,12.8684211 28.1469006,12.8684211 L43.8807018,12.8684211 C44.0388304,12.8684211 44.1178947,12.9473684 44.1178947,13.1052632 L44.1178947,16.5789474 C44.1178947,16.7368421 44.0388304,16.8157895 43.8807018,16.8157895 L41.1134503,16.8157895 L40.4809357,18.2368421 L45.8573099,18.2368421 L45.8573099,19.8947368 L26.0912281,19.8947368 L26.0912281,18.2368421 L31.7047953,18.2368421 L31.0722807,16.8157895 Z M45.6991813,10.7368421 L45.6991813,12.2368421 L26.4074854,12.2368421 L26.4074854,10.7368421 L45.6991813,10.7368421 Z M37.6346199,7.34210526 L37.6346199,6 L39.5321637,6 L39.5321637,4.97368421 L37.6346199,4.97368421 L37.6346199,3.63157895 L39.5321637,3.63157895 L39.5321637,2.52631579 L37.5555556,2.52631579 L37.5555556,1.18421053 L39.5321637,1.18421053 L39.5321637,-3.55271368e-15 L41.034386,-3.55271368e-15 L41.034386,1.18421053 L42.9319298,1.18421053 L42.9319298,2.52631579 L41.1134503,2.52631579 L41.1134503,3.63157895 L42.9319298,3.63157895 L42.9319298,4.97368421 L41.1134503,4.97368421 L41.1134503,6 L43.0109942,6 L43.0109942,7.34210526 L41.1134503,7.34210526 L41.1134503,8.36842105 L43.4853801,8.36842105 C43.6435088,8.36842105 43.7225731,8.28947368 43.7225731,8.13157895 L43.7225731,0.315789474 L45.382924,0.315789474 L45.382924,9.15789474 C45.382924,9.63157895 45.145731,9.86842105 44.671345,9.86842105 L27.4353216,9.86842105 C26.9609357,9.86842105 26.7237427,9.63157895 26.7237427,9.15789474 L26.7237427,0.315789474 L28.3840936,0.315789474 L28.3840936,8.13157895 C28.3840936,8.28947368 28.4631579,8.36842105 28.6212865,8.36842105 L30.914152,8.36842105 L30.914152,7.34210526 L29.0166082,7.34210526 L29.0166082,6 L30.914152,6 L30.914152,4.89473684 L29.0956725,4.89473684 L29.0956725,3.55263158 L30.914152,3.55263158 L30.914152,2.52631579 L29.0166082,2.52631579 L29.0166082,1.18421053 L30.914152,1.18421053 L30.914152,-3.55271368e-15 L32.4163743,-3.55271368e-15 L32.4163743,1.18421053 L34.0767251,1.18421053 L34.0767251,2.52631579 L32.4163743,2.52631579 L32.4163743,3.55263158 L34.0767251,3.55263158 L34.0767251,4.89473684 L32.4163743,4.89473684 L32.4163743,6 L34.2348538,6 L34.2348538,7.34210526 L32.4163743,7.34210526 L32.4163743,8.36842105 L35.1045614,8.36842105 L35.1045614,-7.47939722e-16 L36.7649123,-7.47939722e-16 L36.7649123,8.36842105 L39.6112281,8.36842105 L39.6112281,7.34210526 L37.6346199,7.34210526 Z M29.6491228,14.3684211 C29.6491228,14.3684211 29.5700585,14.3684211 29.6491228,14.3684211 L29.5700585,15.3157895 L29.6491228,15.3947368 L42.3784795,15.3947368 L42.4575439,15.3157895 L42.4575439,14.4473684 L42.3784795,14.3684211 L29.6491228,14.3684211 Z M38.7415205,18.2368421 L39.2949708,17.1315789 L39.3740351,16.8947368 L32.8907602,16.8947368 L33.4442105,18.3157895 L38.7415205,18.3157895 L38.7415205,18.2368421 Z" id="Shape"></path>
                            <path d="M53.3684211,5.05263158 L51.7871345,3.86842105 C54.08,2.60526316 55.5822222,1.42105263 56.2938012,0.157894737 L57.954152,0.236842105 L57.7960234,0.552631579 C58.8238596,1.26315789 59.7726316,1.97368421 60.8004678,2.60526316 L59.5354386,3.94736842 C58.5866667,3.23684211 57.7169591,2.52631579 56.9263158,1.81578947 C56.2147368,2.92105263 55.0287719,3.94736842 53.3684211,5.05263158 Z M55.4240936,10.8947368 L52.4196491,10.8947368 L52.4196491,9.23684211 L55.4240936,9.23684211 L55.4240936,7.02631579 L53.0521637,7.02631579 L53.0521637,5.36842105 L59.7726316,5.36842105 L59.7726316,7.02631579 L57.1635088,7.02631579 L57.1635088,9.23684211 L60.3260819,9.23684211 L60.3260819,10.8947368 L57.1635088,10.8947368 L57.1635088,17.0526316 L60.1679532,16.3421053 L60.4842105,18.0789474 C56.6100585,18.9473684 53.9218713,19.4210526 52.2615205,19.5789474 L52.1033918,17.8421053 L55.4240936,17.3684211 L55.4240936,10.8947368 Z M53.9218713,12 C54.317193,14.0526316 54.4753216,15.4736842 54.554386,16.4210526 L52.8940351,16.5 C52.8149708,15.1578947 52.6568421,13.7368421 52.2615205,12.1578947 L53.9218713,12 Z M60.1679532,12.2368421 C59.9307602,13.5789474 59.6935673,14.7631579 59.4563743,15.7105263 L57.954152,15.2368421 C58.3494737,13.9736842 58.5866667,12.7894737 58.665731,11.8421053 L60.1679532,12.2368421 Z M70.6044444,11.5263158 L71.5532164,12.9473684 C70.6044444,13.6578947 69.4975439,14.3684211 68.074386,15.1578947 C68.9440936,16.5789474 70.2881871,17.8421053 72.0276023,19.0263158 L70.5253801,20.2105263 C68.9440936,18.9473684 67.9953216,18.1578947 67.837193,17.7631579 C66.1768421,15.8684211 65.2280702,13.4210526 65.0699415,10.4210526 L63.251462,10.4210526 L63.251462,17.7631579 C64.4374269,17.4473684 65.5443275,17.1315789 66.3349708,16.7368421 L66.8093567,18.3947368 C65.0699415,19.1052632 62.8561404,19.6578947 60.2470175,20.1315789 L59.8516959,18.3947368 L61.4329825,18.1578947 L61.4329825,1.02631579 C61.4329825,0.710526316 61.5911111,0.552631579 61.9073684,0.552631579 L70.2091228,0.552631579 C70.5253801,0.552631579 70.7625731,0.710526316 70.7625731,1.02631579 L70.7625731,9.86842105 C70.7625731,10.2631579 70.6044444,10.4210526 70.2091228,10.4210526 L66.8093567,10.4210526 C66.8884211,11.6842105 67.0465497,12.7105263 67.362807,13.5789474 C68.7069006,12.7894737 69.8138012,12.0789474 70.6044444,11.5263158 Z M69.0231579,4.65789474 L69.0231579,2.60526316 C69.0231579,2.36842105 68.8650292,2.21052632 68.6278363,2.21052632 L63.725848,2.21052632 C63.4095906,2.21052632 63.3305263,2.36842105 63.3305263,2.60526316 L63.3305263,4.65789474 L69.0231579,4.65789474 Z M63.251462,6.31578947 L63.251462,8.68421053 L68.7859649,8.68421053 C68.9440936,8.68421053 69.0231579,8.60526316 69.0231579,8.44736842 L69.0231579,6.31578947 L63.251462,6.31578947 Z" id="Shape"></path>
                            <path d="M79.6177778,13.1052632 L78.1155556,11.9210526 C80.2502924,10.1842105 81.8315789,8.05263158 82.8594152,5.68421053 L84.5197661,6.47368421 C83.9663158,7.57894737 83.4128655,8.60526316 82.8594152,9.39473684 L82.8594152,20.2105263 L81.0409357,20.2105263 L81.0409357,11.6842105 L79.6177778,13.1052632 Z M83.7291228,0.789473684 C82.6222222,3.47368421 81.2781287,5.52631579 79.7759064,6.78947368 L78.1946199,5.68421053 C79.9340351,4.18421053 81.1990643,2.28947368 81.9897076,0.0789473684 L83.7291228,0.789473684 Z M85.3104094,8.05263158 L85.3104094,6.23684211 L98.2769591,6.23684211 L98.2769591,8.05263158 L94.877193,8.05263158 L94.877193,17.7631579 C94.877193,18.5526316 94.5609357,19.1842105 93.9284211,19.6578947 C92.7424561,20.4473684 90.6077193,20.3684211 87.5242105,19.4210526 L87.6032749,17.5263158 C88.7101754,17.8421053 89.817076,18.0789474 90.8449123,18.3157895 C91.7936842,18.3947368 92.5052632,18.3157895 92.9005848,17.9210526 C93.0587135,17.8421053 93.0587135,17.6052632 93.0587135,17.2894737 L93.0587135,8.05263158 L85.3104094,8.05263158 Z M97.4072515,1.10526316 L97.4072515,2.92105263 L85.942924,2.92105263 L85.942924,1.10526316 L97.4072515,1.10526316 Z" id="Shape"></path>
                        </g>
                    </g>
                </g>
            </g>
        </g>
    </g>
</svg>