<?xml version="1.0" encoding="utf-8"?>
<!-- Generator: Adobe Illustrator 23.0.5, SVG Export Plug-In . SVG Version: 6.00 Build 0)  -->
<svg version="1.1" id="Layer_1" xmlns="http://www.w3.org/2000/svg" xmlns:xlink="http://www.w3.org/1999/xlink" x="0px" y="0px"
	 viewBox="0 0 300 300" style="enable-background:new 0 0 300 300;" xml:space="preserve">
<style type="text/css">
	.st0{fill:#008FED;}
	.st1{fill:#FFFFFF;}
</style>
<g>
	<circle class="st0" cx="150" cy="150" r="150"/>
	<g>
		<path class="st1" d="M224.5,210.4h-149c-4.4,0-8-3.6-8-8V97.6c0-4.4,3.6-8,8-8h149c4.4,0,8,3.6,8,8v104.9
			C232.5,206.8,228.9,210.4,224.5,210.4z"/>
		<path class="st0" d="M131.3,155.9H98.6c-2.8,0-5-2.3-5-5v-32.6c0-2.8,2.3-5,5-5h32.6c2.8,0,5,2.3,5,5v32.6
			C136.3,153.6,134,155.9,131.3,155.9z"/>
		<path class="st0" d="M197,126h-39.1c-1.6,0-3-1.3-3-3v-4.6c0-1.7,1.4-3,3-3H197c1.6,0,3,1.3,3,3v4.6C200,124.7,198.7,126,197,126z
			"/>
		<path class="st0" d="M197,155.3h-30.1c-1.6,0-3-1.4-3-3v-4.6c0-1.6,1.4-3,3-3H197c1.6,0,3,1.4,3,3v4.6
			C200,154,198.7,155.3,197,155.3z"/>
		<path class="st0" d="M197,182.7H96.6c-1.6,0-3-1.3-3-3v-4.6c0-1.6,1.4-3,3-3H197c1.6,0,3,1.4,3,3v4.6
			C200,181.3,198.7,182.7,197,182.7z"/>
	</g>
</g>
</svg>
