<?xml version="1.0" encoding="utf-8"?>
<!-- Generator: Adobe Illustrator 23.0.5, SVG Export Plug-In . SVG Version: 6.00 Build 0)  -->
<svg version="1.1" id="Layer_1" xmlns="http://www.w3.org/2000/svg" xmlns:xlink="http://www.w3.org/1999/xlink" x="0px" y="0px"
	 viewBox="0 0 300 300" style="enable-background:new 0 0 300 300;" xml:space="preserve">
<style type="text/css">
	.st0{fill:#008FED;}
	.st1{fill:#FFFFFF;}
</style>
<title>step2</title>
<circle class="st0" cx="150" cy="150" r="150"/>
<g>
	<path class="st1" d="M86.3,91.6h127.5c2,0,3.7,1.9,3.7,4.1v11.8c0,2.3-1.6,4.1-3.7,4.1H86.3c-2,0-3.7-1.9-3.7-4.1V95.7
		C82.6,93.5,84.2,91.6,86.3,91.6z"/>
	<path class="st1" d="M85.7,188.3h109.1c1.7,0,3.1,1.9,3.1,4.1v11.8c0,2.3-1.4,4.1-3.1,4.1H85.7c-1.7,0-3.1-1.9-3.1-4.1v-11.8
		C82.6,190.1,84,188.3,85.7,188.3z"/>
	<path class="st1" d="M84.4,139.9h61.5c1,0,1.8,1.9,1.8,4.1v11.8c0,2.3-0.8,4.1-1.8,4.1H84.4c-1,0-1.8-1.9-1.8-4.1v-11.8
		C82.6,141.8,83.4,139.9,84.4,139.9z"/>
</g>
</svg>
