<?xml version="1.0" encoding="utf-8"?>
<!-- Generator: Adobe Illustrator 23.0.5, SVG Export Plug-In . SVG Version: 6.00 Build 0)  -->
<svg version="1.1" id="Layer_1" xmlns="http://www.w3.org/2000/svg" xmlns:xlink="http://www.w3.org/1999/xlink" x="0px" y="0px"
	 viewBox="0 0 300 300" style="enable-background:new 0 0 300 300;" xml:space="preserve">
<style type="text/css">
	.st0{fill:#008FED;}
</style>
<g>
	<g>
		<path class="st0" d="M150.1,0C67.2-0.1-0.1,67.2,0,150.1C0.1,232.5,67.5,299.9,149.9,300c82.9,0.1,150.2-67.2,150.1-150.1
			C299.9,67.5,232.5,0.1,150.1,0z M150.5,220.8L150.5,220.8h-0.9H85.5c0-46.9,41.2-46.8,50.3-59.1l1-5.6
			c-12.8-6.5-21.9-22.2-21.9-40.5c0-24.2,15.7-43.7,35.1-43.7s35.1,19.6,35.1,43.7c0,18.2-8.9,33.8-21.6,40.4l1.2,6.3
			c10,11.7,49.8,12.4,49.8,58.5H150.5z"/>
	</g>
</g>
</svg>
